<svg width="19" height="17" viewBox="0 0 19 17" fill="none" xmlns="http://www.w3.org/2000/svg">
<path d="M5.27778 0C2.36295 0 0 2.36295 0 5.27778C0 10.5556 7.38889 14.7778 9.5 16.8889C11.6111 14.7778 19 10.5556 19 5.27778C19 2.36295 16.6371 0 13.7222 0C11.9915 0 10.4625 0.824146 9.5 2.11111C8.53753 0.824146 7.00847 0 5.27778 0ZM5.27778 1.05556C6.67337 1.05556 7.88395 1.71338 8.65473 2.74403L9.5 3.87381L10.3453 2.74403C11.116 1.71338 12.3266 1.05556 13.7222 1.05556C16.0666 1.05556 17.9444 2.93341 17.9444 5.27778C17.9444 7.42407 16.348 9.59866 14.3201 11.4998C12.5641 13.146 10.7998 14.3826 9.5 15.52C8.20024 14.3826 6.43586 13.146 4.6799 11.4998C2.65204 9.59866 1.05556 7.42407 1.05556 5.27778C1.05556 2.93341 2.93341 1.05556 5.27778 1.05556Z" fill="#232629"/>
</svg>
